# xmcd CD database file
# Copyright (C) 1993-1996 Ti Kan
#
# Track frame offsets:
#	187
#	14980
#	30110
#	43832
#	59350
#	75367
#	87897
#	102797
#	121030
#	140430
#
# Disc length: 2101 seconds
#
# Revision: 1
# Processed by: cddbd v1.4b41PL1 Copyright (c) Steve Scherf et al.
# Submitted via: xmcd 2.0
#
DISCID=7308330a
DTITLE=Steve Wariner - Life's Highway
DYEAR=1900
DGENRE=
TTITLE0=Life's Highway
TTITLE1=Back Up Grinnin' Again
TTITLE2=I Let A Keeper Get Away
TTITLE3=She's Crazy For Leaving
TTITLE4=In Love And Out Of Danger
TTITLE5=She's Leaving Me All Over Town
TTITLE6=Natural History
TTITLE7=You Can Dream Of Me
TTITLE8=Starting Over Again
TTITLE9=The Heartland
EXTD=
EXTT0=
EXTT1=
EXTT2=
EXTT3=
EXTT4=
EXTT5=
EXTT6=
EXTT7=
EXTT8=
EXTT9=
PLAYORDER=
